# xmcd
#
# Track frame offsets: 
#        150
#        15919
#        32089
#        47845
#
# Disc length: 848 seconds
#
# Revision: 2
# Processed by: cddbd v1.5.2PL0 Copyright (c) Steve Scherf et al.
# Submitted via: ExactAudioCopyFreeDBPlugin 1.0
#
DISCID=24034e04
DTITLE=Tarja Turunen - Yhden Enkelin Unelma
DYEAR=2004
DGENRE=Classical
TTITLE0=En Etsi Valtaa Loistoa (acoustic)
TTITLE1=Kun Joulu On (acoustic)
TTITLE2=En Etsi Valtaa Loistoa
TTITLE3=Kun Joulu On
EXTD=YEAR: 2005
EXTT0=
EXTT1=
EXTT2=
EXTT3=
PLAYORDER=
